<?xml version="1.0" standalone="no"?>
<!DOCTYPE svg PUBLIC "-//W3C//DTD SVG 20010904//EN"
 "http://www.w3.org/TR/2001/REC-SVG-20010904/DTD/svg10.dtd">
<svg version="1.0" xmlns="http://www.w3.org/2000/svg"
 width="500.000000pt" height="500.000000pt" viewBox="0 0 500.000000 500.000000"
 preserveAspectRatio="xMidYMid meet">
<metadata>
Created by potrace 1.14, written by Peter Selinger 2001-2017
</metadata>
<g transform="translate(0.000000,500.000000) scale(0.100000,-0.100000)"
fill="#000000" stroke="none">
<path d="M2320 4490 c-30 -4 -79 -10 -107 -14 -91 -10 -228 -42 -348 -80 -70
-22 -250 -103 -336 -151 -104 -59 -202 -123 -207 -137 -2 -4 -8 -8 -14 -8 -5
0 -15 -6 -23 -12 -7 -7 -32 -29 -56 -48 -77 -61 -229 -212 -229 -227 0 -8 -4
-11 -10 -8 -5 3 -10 2 -10 -3 0 -4 -8 -17 -18 -28 -35 -37 -129 -170 -177
-249 -95 -158 -204 -426 -231 -569 -2 -12 -8 -41 -13 -66 -28 -124 -39 -253
-36 -425 4 -212 27 -359 89 -561 54 -175 173 -424 249 -519 4 -5 35 -47 68
-93 103 -144 323 -352 469 -446 25 -16 57 -37 71 -47 45 -31 210 -114 284
-143 39 -16 79 -32 90 -37 61 -26 284 -83 375 -95 25 -3 49 -8 54 -11 14 -9
376 -11 441 -3 33 4 85 11 115 15 140 18 387 95 548 172 251 119 496 310 685
533 170 200 334 530 399 800 27 115 25 102 48 285 8 67 6 398 -3 412 -4 6 -9
35 -12 66 -3 31 -12 85 -20 119 -9 35 -18 74 -21 88 -17 86 -91 283 -147 390
-22 41 -46 89 -55 105 -8 17 -33 57 -55 90 -22 33 -52 77 -65 98 -14 20 -29
37 -34 37 -4 0 -8 7 -8 15 0 26 -271 289 -377 366 -164 118 -251 168 -425 242
-101 44 -266 96 -353 113 -22 4 -44 8 -50 9 -5 1 -35 6 -65 10 -30 4 -64 9
-75 11 -37 8 -350 11 -405 4z"/>
</g>
</svg>
